<svg class="vp-icon-muted" fill="none" viewBox="0 0 24 24" xmlns="http://www.w3.org/2000/svg"><path d="m14 2.2002c1.1263 0.22862 2.1838 0.64652 3.1379 1.2191l-1.5866 1.4104c-0.4907-0.24348-1.0099-0.43808-1.5513-0.57743v-2.052zm7.1249 5.7029-1.5871 1.4107c0.2993 0.83961 0.4622 1.744 0.4622 2.6864 0 3.7276-2.5495 6.8598-6 7.7479v2.052c4.5645-0.9265 8-4.962 8-9.7999 0-1.4599-0.3128-2.8468-0.8751-4.0971zm-9.1249-3.8989v3.9822l-8.8219 7.8417c-0.69465-0.3135-1.1781-1.0122-1.1781-1.8239v-4c0-1.1045 0.89543-2 2-2h2.5858l3.7071-4.7071c0.63-0.62996 1.7071-0.18379 1.7071 0.70711zm0 6.6581-9.6644 8.5906c-0.41279 0.3669-0.44997 0.999-0.08305 1.4118 0.36692 0.4127 0.99899 0.4499 1.4118 0.083l18-16c0.4128-0.36691 0.4499-0.99899 0.083-1.4118s-0.999-0.44996-1.4118-0.08305l-8.3356 7.4094zm-1.7071 10.049-1.473-1.8704 3.1802-2.8267v3.99c0 0.8909-1.0771 1.3371-1.7071 0.7071zm3.7071-5.2462c1.0633-0.615 1.8172-1.7055 1.971-2.9807l1.9068-1.6949c0.0801 0.391 0.1222 0.796 0.1222 1.2108 0 2.6124-1.6696 4.8349-4 5.6585v-2.1937z" clip-rule="evenodd" fill="#000" fill-rule="evenodd"></path></svg>